<svg width="64" height="46" viewBox="0 0 64 46" >
 <g fill="none" fill-rule="evenodd">
  <g transform="translate(-628.000000, -665.000000)">
   <g transform="translate(628.000000, 665.000000)">
    <path d="M31,31 C29.343,31 28,32.343 28,34 C28,35.657 29.343,37 31,37 C32.657,37 34,35.657 34,34 C34,32.343 32.657,31 31,31 M31,32 C32.103,32 33,32.897 33,34 C33,35.103 32.103,36 31,36 C29.897,36 29,35.103 29,34 C29,32.897 29.897,32 31,32" class="secondaryIconColor"/>
    <path d="M56,40 C54.343,40 53,41.343 53,43 C53,44.657 54.343,46 56,46 C57.657,46 59,44.657 59,43 C59,41.343 57.657,40 56,40 M56,41 C57.103,41 58,41.897 58,43 C58,44.103 57.103,45 56,45 C54.897,45 54,44.103 54,43 C54,41.897 54.897,41 56,41" class="secondaryIconColor"/>
    <path d="M40,12 C38.343,12 37,13.343 37,15 C37,16.657 38.343,18 40,18 C41.657,18 43,16.657 43,15 C43,13.343 41.657,12 40,12 M40,13 C41.103,13 42,13.897 42,15 C42,16.103 41.103,17 40,17 C38.897,17 38,16.103 38,15 C38,13.897 38.897,13 40,13" class="secondaryIconColor"/>
    <path d="M2.5,1 C1.119,1 0,2.119 0,3.5 C0,4.881 1.119,6 2.5,6 C3.881,6 5,4.881 5,3.5 C5,2.119 3.881,1 2.5,1 M2.5,2 C3.327,2 4,2.673 4,3.5 C4,4.327 3.327,5 2.5,5 C1.673,5 1,4.327 1,3.5 C1,2.673 1.673,2 2.5,2" class="secondaryIconColor"/>
    <path d="M60,20 C57.791,20 56,21.791 56,24 C56,26.209 57.791,28 60,28 C62.209,28 64,26.209 64,24 C64,21.791 62.209,20 60,20 M60,21 C61.654,21 63,22.346 63,24 C63,25.654 61.654,27 60,27 C58.346,27 57,25.654 57,24 C57,22.346 58.346,21 60,21" class="secondaryIconColor"/>
    <path d="M28.5,0 C26.567,0 25,1.567 25,3.5 C25,5.433 26.567,7 28.5,7 C30.433,7 32,5.433 32,3.5 C32,1.567 30.433,0 28.5,0 M28.5,1 C29.878,1 31,2.121 31,3.5 C31,4.879 29.878,6 28.5,6 C27.122,6 26,4.879 26,3.5 C26,2.121 27.122,1 28.5,1" class="secondaryIconColor"/>
    <path d="M37,12.5 C36.872,12.5 36.744,12.451 36.646,12.354 L31.646,7.354 C31.451,7.158 31.451,6.842 31.646,6.646 C31.842,6.451 32.158,6.451 32.354,6.646 L37.354,11.646 C37.549,11.842 37.549,12.158 37.354,12.354 C37.256,12.451 37.128,12.5 37,12.5" class="primaryIconColor"/>
    <path d="M33,30.5 C32.931,30.5 32.86,30.485 32.793,30.455 C32.542,30.341 32.431,30.045 32.545,29.793 L37.545,18.793 C37.66,18.541 37.956,18.433 38.207,18.545 C38.458,18.659 38.569,18.955 38.455,19.207 L33.455,30.207 C33.371,30.392 33.189,30.5 33,30.5" class="primaryIconColor"/>
    <path d="M55,22.5 C54.947,22.5 54.895,22.492 54.842,22.475 L42.842,18.475 C42.58,18.387 42.438,18.104 42.525,17.842 C42.614,17.58 42.897,17.44 43.158,17.525 L55.158,21.525 C55.42,21.613 55.562,21.896 55.475,22.158 C55.404,22.367 55.209,22.5 55,22.5" class="primaryIconColor"/>
    <path d="M57.001,39.5 C56.968,39.5 56.935,39.497 56.902,39.49 C56.631,39.437 56.455,39.173 56.51,38.902 L58.51,28.902 C58.564,28.63 58.837,28.455 59.098,28.51 C59.369,28.563 59.545,28.827 59.49,29.098 L57.49,39.098 C57.442,39.336 57.234,39.5 57.001,39.5" class="primaryIconColor"/>
    <path d="M52,42.5 C51.944,42.5 51.889,42.491 51.834,42.472 L34.834,36.472 C34.573,36.38 34.437,36.094 34.528,35.834 C34.62,35.573 34.909,35.438 35.166,35.528 L52.166,41.528 C52.427,41.62 52.563,41.906 52.472,42.166 C52.399,42.372 52.206,42.5 52,42.5" class="primaryIconColor"/>
    <path d="M23.5,4 L6.5,4 C6.224,4 6,3.776 6,3.5 C6,3.224 6.224,3 6.5,3 L23.5,3 C23.776,3 24,3.224 24,3.5 C24,3.776 23.776,4 23.5,4" class="primaryIconColor"/>
   </g>
  </g>
 </g>
</svg>
